# xmcd
#
# Track frame offsets:
#	150
#	20925
#	40728
#	60837
#	84786
#	102755
#	124968
#	147487
#	171675
#	192781
#	215292
#	232213
#	253344
#
# Disc length: 3658 seconds
#
# Revision: 1
# Processed by: cddbd v1.5.1PL0 Copyright (c) Steve Scherf et al.
# Submitted via: CDex 1.50Beta5
#
DISCID=bd0e480d
DTITLE=Porno Graffitti - foo?+α
DYEAR=1900
DGENRE=
TTITLE0=INNERVISIONS
TTITLE1=グァバジュース
TTITLE2=サウダージ "D"tour style
TTITLE3=愛なき…
TTITLE4=オレ、天使
TTITLE5=サボテン
TTITLE6=Name is man 〜君の見方〜
TTITLE7=デッサン#2春光
TTITLE8=ミュージック・アワーVer1.64
TTITLE9=空想科学少年
TTITLE10=Report21
TTITLE11=夜明け前には
TTITLE12=ヴォイス
EXTD=
EXTT0=
EXTT1=
EXTT2=
EXTT3=
EXTT4=
EXTT5=
EXTT6=
EXTT7=
EXTT8=
EXTT9=
EXTT10=
EXTT11=
EXTT12=
PLAYORDER=
